<svg id="Layer_1" data-name="Layer 1" xmlns="http://www.w3.org/2000/svg" viewBox="0 0 726.29 645.27"><defs><style>.cls-1,.cls-2{fill:#8f00b2;}.cls-2{font-size:563.07px;font-family:AlroBold, Alro;}</style></defs><path class="cls-1" d="M320.56,313.31c0,88.21-71.75,160-160,160H30.53A29.92,29.92,0,0,1,.6,443.34v-130a29.93,29.93,0,0,1,29.93-29.94H145.72a29.94,29.94,0,0,1,0,59.87H60.47V413.4H160.59a100.25,100.25,0,0,0,18.89-1.79h0a100.11,100.11,0,0,0-18.92-198.43H29.93a29.94,29.94,0,0,1,0-59.87H160.59a160.12,160.12,0,0,1,160,160Z"/><text class="cls-2" transform="translate(493.29 487.05)">.</text><path class="cls-1" d="M640,154H459.9l-11.35,33.51c-8.41,24.81,12.59,49.77,41.86,49.77H557l1.28-21.94c.21-3.61,5.09-5.36,8.09-2.9l53,43.39a4,4,0,0,1-.81,6.79l-80.76,42.54c-4.22,2.23-9.06-1.9-6.7-5.71l10.73-17.33H449c-19.31,0-36.33,11.21-41.87,27.57L390.42,359,351.67,473.39h60.2c21,0,39.48-12.18,45.51-30L475.83,389c6-17.78,24.52-30,45.5-30h49.21c64,0,131.44-45.9,150.63-102.52h0C740.35,199.87,704,154,640,154Z"/><path class="cls-1" d="M719.53,261c.57-1.48,1.13-3,1.64-4.47h0C740.35,199.87,704,154,640,154H571C572.81,176.28,593.24,222.54,719.53,261Z"/><path class="cls-1" d="M719.52,261c-.52.09-154.69,29.09-180.54,98h31.56C632.85,359,698.39,315.51,719.52,261Z"/><path class="cls-1" d="M407.15,309.66,390.42,359,351.67,473.39h60.2c21,0,39.48-12.18,45.51-30L475.83,389S400.81,372.65,407.15,309.66Z"/></svg>